# Blender v2.79 (sub 0) OBJ File: 'boolean_modifeir.blend'
# www.blender.org
mtllib panel_clipped.mtl
v 0.223395 0.326453 -0.160804
v -2.591315 0.326453 -0.160805
v -0.180231 0.291194 0.687727
v -0.162631 -0.134325 0.702307
v -0.180218 -0.153634 0.691465
v 0.103231 -0.134325 0.701263
v 0.120718 0.291194 0.686545
v 0.120732 -0.153635 0.690284
v 0.103218 0.272071 0.697847
v -0.160388 0.269999 0.698900
v -0.160388 -0.132279 0.699138
v -0.160375 -0.132252 0.702280
v 0.100975 -0.132253 0.701254
v 0.100951 0.269972 0.694731
v 0.100963 0.269998 0.697874
v -0.160400 0.269972 0.695758
v 0.100963 -0.132279 0.698112
v -0.162643 0.272071 0.698891
v 0.097550 0.266149 0.692295
v 0.094181 -0.124675 0.698075
v 0.094169 0.262367 0.694822
v -0.153618 0.262368 0.695795
v -0.157019 0.266149 0.693295
v -0.157007 -0.128497 0.696612
v 0.097562 -0.128498 0.695612
v -0.153594 -0.124648 0.702190
v -0.153606 0.262394 0.698937
v 0.094182 0.262394 0.697964
v 0.094194 -0.124648 0.701217
v -0.153606 -0.124674 0.699048
v -2.160710 0.326453 0.695208
v 0.194153 0.326453 0.744120
v 0.120717 0.326453 0.686249
v -0.009531 0.326453 0.686760
v -0.180232 0.326453 0.687431
v -0.985546 0.326453 0.690593
v -1.012921 0.326453 0.690700
v -0.214401 0.326453 0.687565
v -0.214401 0.291194 0.687861
v -0.214401 0.072638 0.689698
v -0.214401 -0.153634 0.691599
v 0.120733 -0.187590 0.690569
v -0.005457 -0.187590 0.691065
v -0.180217 -0.187590 0.691751
v -0.209384 -0.187590 0.691865
v -0.214401 -0.187590 0.691885
v 0.158934 0.291194 0.686395
v 0.158934 0.326453 0.686099
v 0.158934 0.059024 0.688346
v 0.158934 -0.153635 0.690134
v 0.158934 -0.187590 0.690419
vt 0.673216 0.276246
vt 0.666097 0.103534
vt 0.673216 0.095736
vt 0.558214 0.103534
vt 0.551095 0.276246
vt 0.551095 0.095736
vt 0.558214 0.268448
vt 0.518838 0.046172
vt 0.520113 0.209404
vt 0.518838 0.209404
vt 0.194925 0.745169
vt 0.358157 0.743894
vt 0.358157 0.745169
vt 0.252105 0.377080
vt 0.146052 0.378355
vt 0.146052 0.377080
vt 0.088001 0.637649
vt 0.086726 0.531597
vt 0.088001 0.531597
vt 0.665182 0.267607
vt 0.665182 0.104375
vt 0.559129 0.267607
vt 0.666097 0.268448
vt 0.559129 0.104375
vt 0.250729 0.202640
vt 0.249353 0.361243
vt 0.249353 0.204183
vt 0.148804 0.204183
vt 0.147428 0.202640
vt 0.147428 0.362786
vt 0.250729 0.362786
vt 0.095045 0.423187
vt 0.252105 0.421911
vt 0.252105 0.423187
vt 0.086726 0.794709
vt 0.088001 0.951769
vt 0.086726 0.951769
vt 0.252105 0.406610
vt 0.151556 0.407885
vt 0.151556 0.406610
vt 0.199822 0.533064
vt 0.201097 0.633613
vt 0.199822 0.633613
vt 0.201097 0.044037
vt 0.100548 0.201097
vt 0.100548 0.044037
vt 0.148804 0.361243
vt 0.252105 0.201097
vt 0.146052 0.201097
vt 0.146052 0.364329
vt 0.252105 0.364329
vt 0.603948 0.290554
vt 0.551095 0.290554
vt 0.535591 0.182032
vt 0.685052 0.081957
vt 0.687087 0.095736
vt 0.602301 0.081958
vt 0.520113 0.046172
vt 0.194925 0.743894
vt 0.252105 0.378355
vt 0.086726 0.637649
vt 0.095045 0.421911
vt 0.088001 0.794709
vt 0.252105 0.407885
vt 0.201097 0.533064
vt 0.201097 0.201097
vt 0.535588 0.276246
vt 0.673216 0.081957
vt 0.551095 0.081958
vt 0.687084 0.187557
vt 0.687081 0.290554
vt 0.687081 0.276246
vt 0.535594 0.081958
vt 0.535593 0.095736
vt 0.687087 0.081957
vt 0.673216 0.290554
vt 0.535587 0.290554
vn 0.5304 -0.0071 -0.8477
vn -0.5370 -0.0071 -0.8435
vn -0.0034 -0.5065 -0.8622
vn -0.0034 0.4920 -0.8706
vn -0.0034 0.4919 -0.8706
vn -1.0000 0.0000 0.0038
vn -1.0000 -0.0000 0.0037
vn 1.0000 -0.0000 -0.0038
vn 0.0001 1.0000 -0.0086
vn 0.0000 1.0000 -0.0083
vn 0.0000 -1.0000 0.0086
vn -0.0041 -0.0086 -1.0000
vn -0.0038 -0.0085 -1.0000
vn -0.5938 -0.0068 -0.8046
vn -0.0033 -0.5535 -0.8328
vn -0.0033 -0.5536 -0.8328
vn -0.0033 0.5395 -0.8420
vn -0.0000 -1.0000 0.0083
vn -0.0000 1.0000 -0.0086
vn -0.0039 -0.0084 -1.0000
vn 0.5873 -0.0068 -0.8093
vn 0.5874 -0.0068 -0.8093
vn -0.0033 -0.5534 -0.8329
vn -0.5936 -0.0068 -0.8047
vn -1.0000 0.0000 0.0041
vn 0.0000 -1.0000 0.0082
usemtl Material.000
s 1
f 3/1/1 4/2/1 5/3/1
f 6/4/2 7/5/2 8/6/2
f 9/7/3 3/1/3 7/5/3
f 5/3/4 6/4/5 8/6/5
f 10/8/6 11/9/7 12/10/6
f 13/11/8 14/12/8 15/13/8
f 15/14/9 16/15/10 10/16/10
f 12/17/11 17/18/11 13/19/11
f 4/2/12 10/20/13 12/21/12
f 6/4/13 15/22/12 9/7/12
f 9/7/12 10/20/13 18/23/13
f 4/2/12 13/24/13 6/4/13
f 19/25/14 20/26/14 21/27/14
f 19/25/15 22/28/16 23/29/16
f 24/30/17 20/26/17 25/31/17
f 26/32/8 22/33/8 27/34/8
f 28/35/7 20/36/7 29/37/6
f 27/38/11 21/39/11 28/40/18
f 29/41/19 30/42/10 26/43/10
f 26/44/20 28/45/20 29/46/20
f 24/30/21 22/28/21 30/47/21
f 14/48/21 25/31/22 19/25/21
f 14/48/17 23/29/17 16/49/17
f 11/50/23 25/31/16 17/51/16
f 16/49/14 24/30/24 11/50/24
f 7/5/20 34/52/20 33/53/20
f 49/54/20 8/6/20 7/5/20
f 45/55/20 41/56/20 5/3/20
f 43/57/20 5/3/20 8/6/20
f 3/1/1 18/23/1 4/2/1
f 6/4/2 9/7/2 7/5/2
f 9/7/3 18/23/3 3/1/3
f 5/3/4 4/2/4 6/4/5
f 10/8/6 16/58/6 11/9/7
f 13/11/8 17/59/8 14/12/8
f 15/14/9 14/60/9 16/15/10
f 12/17/11 11/61/18 17/18/11
f 4/2/12 18/23/13 10/20/13
f 6/4/13 13/24/13 15/22/12
f 9/7/12 15/22/12 10/20/13
f 4/2/12 12/21/12 13/24/13
f 19/25/14 25/31/14 20/26/14
f 19/25/15 21/27/15 22/28/16
f 24/30/17 30/47/17 20/26/17
f 26/32/8 30/62/8 22/33/8
f 28/35/7 21/63/25 20/36/7
f 27/38/11 22/64/26 21/39/11
f 29/41/19 20/65/19 30/42/10
f 26/44/20 27/66/20 28/45/20
f 24/30/21 23/29/21 22/28/21
f 14/48/21 17/51/22 25/31/22
f 14/48/17 19/25/17 23/29/17
f 11/50/23 24/30/23 25/31/16
f 16/49/14 23/29/14 24/30/24
f 3/1/20 34/52/20 7/5/20
f 7/5/20 47/67/20 49/54/20
f 5/3/20 44/68/20 45/55/20
f 8/6/20 42/69/20 43/57/20
f 33/53/20 47/67/20 7/5/20
f 40/70/20 5/3/20 41/56/20
f 38/71/20 3/1/20 39/72/20
f 40/70/20 39/72/20 3/1/20
f 51/73/20 8/6/20 50/74/20
f 49/54/20 50/74/20 8/6/20
f 45/55/20 46/75/20 41/56/20
f 43/57/20 44/68/20 5/3/20
f 3/1/20 35/76/20 34/52/20
f 33/53/20 48/77/20 47/67/20
f 40/70/20 3/1/20 5/3/20
f 38/71/20 35/76/20 3/1/20
f 51/73/20 42/69/20 8/6/20
